<svg width="254" height="64" viewBox="0 0 254 64" fill="none" xmlns="http://www.w3.org/2000/svg">
<path d="M156.579 9.576C157.624 9.72533 158.334 10.0427 158.707 10.528C159.118 11.0133 159.323 11.648 159.323 12.432C159.323 15.008 157.942 16.2027 155.179 16.016L153.219 15.848C151.016 15.6613 148.814 15.512 146.611 15.4C144.446 15.288 142.168 15.232 139.779 15.232H137.259C136.811 20.7573 136.344 25.7973 135.859 30.352L145.491 30.184C146.872 30.184 147.787 30.4267 148.235 30.912C148.72 31.3973 148.963 32.0507 148.963 32.872C148.963 34.1413 148.59 35.1493 147.843 35.896C147.096 36.6053 146.032 36.96 144.651 36.96H135.075L134.739 39.368C133.955 45.528 132.275 49.9147 129.699 52.528C127.16 55.1413 123.651 56.448 119.171 56.448C116.632 56.448 114.299 55.9067 112.171 54.824C110.043 53.704 108.475 52.36 107.467 50.792C107.056 50.1573 106.851 49.392 106.851 48.496C106.851 47.6 107.056 46.816 107.467 46.144C107.915 45.472 108.456 45.136 109.091 45.136C109.539 45.136 109.968 45.2853 110.379 45.584C110.827 45.8827 111.387 46.4613 112.059 47.32C113.851 49.672 116.072 50.848 118.723 50.848C120.851 50.848 122.624 49.9893 124.043 48.272C125.499 46.5173 126.432 43.7733 126.843 40.04L127.179 36.96H124.491C123.632 36.96 122.886 36.7173 122.251 36.232C121.654 35.7467 121.355 35.056 121.355 34.16C121.355 33.0027 121.654 32.1253 122.251 31.528C122.848 30.8933 123.726 30.576 124.883 30.576C125.928 30.576 126.955 30.5573 127.963 30.52C128.411 26.4133 128.896 21.4293 129.419 15.568C125.387 15.9413 122.55 16.5947 120.907 17.528C119.264 18.4613 118.443 19.8427 118.443 21.672C118.443 22.9413 118.816 24.1547 119.563 25.312C119.787 25.648 119.899 25.984 119.899 26.32C119.899 26.992 119.526 27.5893 118.779 28.112C118.032 28.5973 117.192 28.84 116.259 28.84C115.251 28.84 114.392 28.5413 113.683 27.944C113.235 27.5707 112.806 26.8053 112.395 25.648C111.984 24.4907 111.779 23.2027 111.779 21.784C111.779 17.1547 114.15 13.7947 118.891 11.704C123.67 9.61333 130.632 8.568 139.779 8.568C146.126 8.568 151.726 8.904 156.579 9.576ZM155.174 56.28C153.494 56.28 152.113 55.5147 151.03 53.984C149.985 52.416 149.462 50.4747 149.462 48.16C149.462 45.36 149.649 42.8027 150.022 40.488C150.396 38.136 151.012 35.6533 151.87 33.04C152.244 31.92 152.766 31.1173 153.438 30.632C154.11 30.1467 155.174 29.904 156.63 29.904C157.452 29.904 158.012 30.0347 158.31 30.296C158.646 30.5573 158.814 30.9493 158.814 31.472C158.814 31.7707 158.609 32.7787 158.198 34.496C157.825 35.8773 157.526 37.128 157.302 38.248C156.556 42.168 156.182 44.7813 156.182 46.088C156.182 46.872 156.276 47.432 156.462 47.768C156.649 48.0667 156.948 48.216 157.358 48.216C157.918 48.216 158.609 47.656 159.43 46.536C160.289 45.416 161.185 43.7173 162.118 41.44C163.089 39.1627 164.022 36.3627 164.918 33.04C165.217 31.92 165.665 31.1173 166.262 30.632C166.897 30.1467 167.83 29.904 169.062 29.904C169.921 29.904 170.518 30.016 170.854 30.24C171.19 30.4267 171.358 30.8 171.358 31.36C171.358 32.2933 170.892 34.8507 169.958 39.032C168.913 43.8107 168.39 46.76 168.39 47.88C168.39 48.5893 168.54 49.1493 168.838 49.56C169.137 49.9333 169.529 50.12 170.014 50.12C170.761 50.12 171.638 49.672 172.646 48.776C173.692 47.8427 175.073 46.3493 176.79 44.296C177.238 43.7733 177.742 43.512 178.302 43.512C178.788 43.512 179.161 43.736 179.422 44.184C179.721 44.632 179.87 45.248 179.87 46.032C179.87 47.5253 179.516 48.6827 178.806 49.504C177.201 51.4827 175.465 53.1067 173.598 54.376C171.769 55.6453 169.678 56.28 167.326 56.28C165.534 56.28 164.209 55.5893 163.35 54.208C162.529 52.8267 162.118 50.8853 162.118 48.384C161.484 50.9227 160.532 52.8827 159.262 54.264C157.993 55.608 156.63 56.28 155.174 56.28ZM157.75 26.208C156.556 26.208 155.622 25.8907 154.95 25.256C154.278 24.584 153.942 23.5573 153.942 22.176C153.942 20.6827 154.334 19.5253 155.118 18.704C155.94 17.8453 157.022 17.416 158.366 17.416C159.561 17.416 160.494 17.752 161.166 18.424C161.838 19.0587 162.174 20.0667 162.174 21.448C162.174 22.9413 161.764 24.1173 160.942 24.976C160.158 25.7973 159.094 26.208 157.75 26.208ZM169.398 26.208C168.204 26.208 167.27 25.8907 166.598 25.256C165.926 24.584 165.59 23.5573 165.59 22.176C165.59 20.6827 165.982 19.5253 166.766 18.704C167.588 17.8453 168.67 17.416 170.014 17.416C171.209 17.416 172.142 17.752 172.814 18.424C173.486 19.0587 173.822 20.0667 173.822 21.448C173.822 22.9413 173.412 24.1173 172.59 24.976C171.806 25.7973 170.742 26.208 169.398 26.208ZM197.953 37.576C198.775 37.576 199.465 37.8747 200.025 38.472C200.623 39.032 200.921 39.7413 200.921 40.6C200.921 41.0853 200.809 41.608 200.585 42.168C199.988 43.5493 199.148 44.7067 198.065 45.64C196.983 46.5733 195.788 47.04 194.481 47.04C193.436 47.04 192.54 46.6667 191.793 45.92C191.084 45.1733 190.729 44.1653 190.729 42.896C190.729 42.1867 190.767 41.4213 190.841 40.6C190.916 40.0027 190.953 39.592 190.953 39.368C190.953 39.0693 190.879 38.8453 190.729 38.696C190.617 38.5467 190.468 38.472 190.281 38.472C189.759 38.472 189.049 39.1067 188.153 40.376C187.257 41.608 186.361 43.2507 185.465 45.304C184.569 47.3573 183.841 49.5227 183.281 51.8C182.871 53.592 182.404 54.7867 181.881 55.384C181.359 55.9813 180.5 56.28 179.305 56.28C177.887 56.28 176.879 55.5333 176.281 54.04C175.721 52.5467 175.441 50.1573 175.441 46.872C175.441 42.0187 176.132 37.408 177.513 33.04C177.849 31.9573 178.391 31.1733 179.137 30.688C179.921 30.1653 181.004 29.904 182.385 29.904C183.132 29.904 183.655 29.9973 183.953 30.184C184.252 30.3707 184.401 30.7253 184.401 31.248C184.401 31.8453 184.121 33.1893 183.561 35.28C183.188 36.7733 182.889 38.08 182.665 39.2C182.441 40.32 182.255 41.7013 182.105 43.344C183.337 40.1333 184.719 37.52 186.249 35.504C187.78 33.488 189.273 32.0507 190.729 31.192C192.185 30.3333 193.511 29.904 194.705 29.904C195.788 29.904 196.609 30.2213 197.169 30.856C197.767 31.4533 198.065 32.3493 198.065 33.544C198.065 34.2533 197.86 35.5973 197.449 37.576H197.953Z" fill="#115E59"/>
<path d="M234.864 43.512C235.349 43.512 235.723 43.736 235.984 44.184C236.283 44.632 236.432 45.248 236.432 46.032C236.432 47.5253 236.077 48.6827 235.368 49.504C233.837 51.3707 232.157 52.976 230.328 54.32C228.499 55.6267 226.688 56.28 224.896 56.28C222.059 56.28 219.893 54.6187 218.4 51.296C216.832 53.2747 215.451 54.6 214.256 55.272C213.099 55.944 211.736 56.28 210.168 56.28C207.891 56.28 206.005 55.44 204.512 53.76C203.056 52.0427 202.328 49.8213 202.328 47.096C202.328 44.1093 202.963 41.3467 204.232 38.808C205.501 36.232 207.237 34.1413 209.44 32.536C211.68 30.8933 214.181 29.9227 216.944 29.624C217.653 22.3813 218.997 16.2027 220.976 11.088C222.992 5.936 225.624 3.36 228.872 3.36C230.477 3.36 231.803 4.088 232.848 5.544C233.931 7 234.472 9.20266 234.472 12.152C234.472 16.3333 233.445 21.224 231.392 26.824C229.339 32.424 226.595 38.1733 223.16 44.072C223.309 46.2373 223.627 47.7867 224.112 48.72C224.635 49.6533 225.288 50.12 226.072 50.12C227.08 50.12 228.107 49.672 229.152 48.776C230.197 47.88 231.597 46.3867 233.352 44.296C233.8 43.7733 234.304 43.512 234.864 43.512ZM228.256 8.848C227.547 8.848 226.837 10.1173 226.128 12.656C225.419 15.1573 224.803 18.4427 224.28 22.512C223.795 26.5813 223.44 30.8373 223.216 35.28C227.397 26.1707 229.488 18.8533 229.488 13.328C229.488 11.9093 229.357 10.808 229.096 10.024C228.872 9.24 228.592 8.848 228.256 8.848ZM212.128 50.624C212.837 50.624 213.547 50.344 214.256 49.784C214.965 49.1867 215.861 48.104 216.944 46.536C216.571 44.52 216.384 42.2613 216.384 39.76C216.384 38.864 216.421 37.408 216.496 35.392C214.443 36.0267 212.725 37.408 211.344 39.536C210 41.6267 209.328 43.96 209.328 46.536C209.328 49.2613 210.261 50.624 212.128 50.624ZM237.7 56.28C235.946 56.28 234.527 55.5707 233.444 54.152C232.399 52.696 231.876 50.6987 231.876 48.16C231.876 45.36 232.063 42.8027 232.436 40.488C232.81 38.136 233.426 35.6533 234.284 33.04C234.658 31.92 235.18 31.1173 235.852 30.632C236.524 30.1467 237.588 29.904 239.044 29.904C239.866 29.904 240.426 30.0347 240.724 30.296C241.06 30.5573 241.228 30.9493 241.228 31.472C241.228 31.7707 241.023 32.7787 240.612 34.496C240.239 35.8773 239.94 37.128 239.716 38.248C238.97 42.168 238.596 44.7813 238.596 46.088C238.596 46.872 238.69 47.432 238.876 47.768C239.063 48.0667 239.362 48.216 239.772 48.216C240.332 48.216 241.042 47.656 241.9 46.536C242.759 45.3787 243.655 43.6613 244.588 41.384C245.559 39.0693 246.474 36.288 247.332 33.04C247.631 31.92 248.079 31.1173 248.676 30.632C249.311 30.1467 250.244 29.904 251.476 29.904C252.298 29.904 252.876 30.128 253.212 30.576C253.586 30.9867 253.772 31.6213 253.772 32.48C253.772 33.4133 253.698 34.4587 253.548 35.616C253.399 36.736 253.231 37.8933 253.044 39.088C252.671 41.4773 252.372 43.6613 252.148 45.64C251.924 47.5813 251.812 49.8027 251.812 52.304C251.812 53.7227 251.514 54.7493 250.916 55.384C250.356 55.9813 249.423 56.28 248.116 56.28C246.735 56.28 245.764 55.9253 245.204 55.216C244.682 54.4693 244.42 53.0507 244.42 50.96C244.42 50.5493 244.458 49.6347 244.532 48.216C243.898 50.8293 242.946 52.8267 241.676 54.208C240.444 55.5893 239.119 56.28 237.7 56.28Z" fill="#2DD4BF"/>
<path d="M35.0373 0C33.3479 0 31.9888 1.35735 31.9888 3.04453C31.9888 4.73171 33.3479 6.08907 35.0373 6.08907H37.0697V10.3134C22.7922 11.8229 11.6649 23.8996 11.6649 38.5641H68.5718C68.5718 23.8996 57.4444 11.8229 43.1669 10.3134V6.08907H45.1993C46.8887 6.08907 48.2479 4.73171 48.2479 3.04453C48.2479 1.35735 46.8887 0 45.1993 0H40.1183H35.0373ZM10.6487 42.6235C8.95926 42.6235 7.6001 43.9808 7.6001 45.668C7.6001 47.3552 8.95926 48.7125 10.6487 48.7125H69.588C71.2774 48.7125 72.6365 47.3552 72.6365 45.668C72.6365 43.9808 71.2774 42.6235 69.588 42.6235H10.6487Z" fill="#2DD4BF"/>
<path d="M94.1656 43.7908C97.1603 41.581 97.7996 37.3637 95.5956 34.361C93.3917 31.3583 89.1856 30.7173 86.1909 32.9271L66.0522 47.8057H45.7621C44.2815 47.8057 43.0702 46.5911 43.0702 45.1066C43.0702 43.6221 44.2815 42.4076 45.7621 42.4076H48.454H59.2215C62.1994 42.4076 64.6053 39.9953 64.6053 37.0094C64.6053 34.0236 62.1994 31.6113 59.2215 31.6113H48.454H45.7621H32.5887C27.6928 31.6113 22.9483 33.2814 19.1292 36.3347L11.5751 42.4076H5.38377C2.40587 42.4076 0 44.8198 0 47.8057V58.6019C0 61.5877 2.40587 64 5.38377 64H32.3026H59.3056C64.1847 64 68.946 62.4312 72.8828 59.5297L94.1824 43.7908H94.1656Z" fill="#115E59"/>
</svg>
