<svg width="776" height="512" viewBox="0 0 776 512" fill="none" xmlns="http://www.w3.org/2000/svg">
<path d="M280.299 0C266.784 0 255.911 10.8588 255.911 24.3563C255.911 37.8537 266.784 48.7125 280.299 48.7125H296.559V82.5069C182.338 94.5835 93.3197 191.197 93.3197 308.513H548.575C548.575 191.197 459.556 94.5835 345.336 82.5069V48.7125H361.595C375.11 48.7125 385.984 37.8537 385.984 24.3563C385.984 10.8588 375.11 0 361.595 0H320.947H280.299ZM85.1902 340.988C71.6748 340.988 60.8015 351.847 60.8015 365.344C60.8015 378.842 71.6748 389.7 85.1902 389.7H556.704C570.22 389.7 581.093 378.842 581.093 365.344C581.093 351.847 570.22 340.988 556.704 340.988H85.1902Z" fill="#2DD4BF"/>
<path d="M753.325 350.327C777.282 332.648 782.397 298.91 764.765 274.888C747.133 250.866 713.485 245.738 689.527 263.417L528.417 382.445H366.097C354.252 382.445 344.562 372.729 344.562 360.853C344.562 348.977 354.252 339.26 366.097 339.26H387.632H473.772C497.595 339.26 516.842 319.962 516.842 296.076C516.842 272.189 497.595 252.891 473.772 252.891H387.632H366.097H260.709C221.542 252.891 183.587 266.251 153.034 290.677L92.6009 339.26H43.0702C19.247 339.26 0 358.559 0 382.445V468.815C0 492.702 19.247 512 43.0702 512H258.421H474.445C513.477 512 551.568 499.449 583.063 476.238L753.459 350.327H753.325Z" fill="#115E59"/>
</svg>
