<svg width="148" height="54" viewBox="0 0 148 54" fill="none" xmlns="http://www.w3.org/2000/svg">
<path d="M50.579 6.576C51.6243 6.72533 52.3337 7.04266 52.707 7.528C53.1177 8.01333 53.323 8.648 53.323 9.432C53.323 12.008 51.9417 13.2027 49.179 13.016L47.219 12.848C45.0163 12.6613 42.8137 12.512 40.611 12.4C38.4457 12.288 36.1683 12.232 33.779 12.232H31.259C30.811 17.7573 30.3443 22.7973 29.859 27.352L39.491 27.184C40.8723 27.184 41.787 27.4267 42.235 27.912C42.7203 28.3973 42.963 29.0507 42.963 29.872C42.963 31.1413 42.5897 32.1493 41.843 32.896C41.0963 33.6053 40.0323 33.96 38.651 33.96H29.075L28.739 36.368C27.955 42.528 26.275 46.9147 23.699 49.528C21.1603 52.1413 17.651 53.448 13.171 53.448C10.6323 53.448 8.29898 52.9067 6.17098 51.824C4.04298 50.704 2.47498 49.36 1.46698 47.792C1.05632 47.1573 0.850982 46.392 0.850982 45.496C0.850982 44.6 1.05632 43.816 1.46698 43.144C1.91498 42.472 2.45632 42.136 3.09098 42.136C3.53898 42.136 3.96832 42.2853 4.37898 42.584C4.82698 42.8827 5.38698 43.4613 6.05898 44.32C7.85098 46.672 10.0723 47.848 12.723 47.848C14.851 47.848 16.6243 46.9893 18.043 45.272C19.499 43.5173 20.4323 40.7733 20.843 37.04L21.179 33.96H18.491C17.6323 33.96 16.8856 33.7173 16.251 33.232C15.6537 32.7467 15.355 32.056 15.355 31.16C15.355 30.0027 15.6537 29.1253 16.251 28.528C16.8483 27.8933 17.7257 27.576 18.883 27.576C19.9283 27.576 20.955 27.5573 21.963 27.52C22.411 23.4133 22.8963 18.4293 23.419 12.568C19.387 12.9413 16.5496 13.5947 14.907 14.528C13.2643 15.4613 12.443 16.8427 12.443 18.672C12.443 19.9413 12.8163 21.1547 13.563 22.312C13.787 22.648 13.899 22.984 13.899 23.32C13.899 23.992 13.5256 24.5893 12.779 25.112C12.0323 25.5973 11.1923 25.84 10.259 25.84C9.25098 25.84 8.39232 25.5413 7.68298 24.944C7.23498 24.5707 6.80565 23.8053 6.39498 22.648C5.98432 21.4907 5.77898 20.2027 5.77898 18.784C5.77898 14.1547 8.14965 10.7947 12.891 8.704C17.6696 6.61333 24.6323 5.568 33.779 5.568C40.1257 5.568 45.7257 5.904 50.579 6.576ZM49.1742 53.28C47.4942 53.28 46.1128 52.5147 45.0302 50.984C43.9848 49.416 43.4622 47.4747 43.4622 45.16C43.4622 42.36 43.6488 39.8027 44.0222 37.488C44.3955 35.136 45.0115 32.6533 45.8702 30.04C46.2435 28.92 46.7662 28.1173 47.4382 27.632C48.1102 27.1467 49.1742 26.904 50.6302 26.904C51.4515 26.904 52.0115 27.0347 52.3102 27.296C52.6462 27.5573 52.8142 27.9493 52.8142 28.472C52.8142 28.7707 52.6088 29.7787 52.1982 31.496C51.8248 32.8773 51.5262 34.128 51.3022 35.248C50.5555 39.168 50.1822 41.7813 50.1822 43.088C50.1822 43.872 50.2755 44.432 50.4622 44.768C50.6488 45.0667 50.9475 45.216 51.3582 45.216C51.9182 45.216 52.6088 44.656 53.4302 43.536C54.2888 42.416 55.1848 40.7173 56.1182 38.44C57.0888 36.1627 58.0222 33.3627 58.9182 30.04C59.2168 28.92 59.6648 28.1173 60.2622 27.632C60.8968 27.1467 61.8302 26.904 63.0622 26.904C63.9208 26.904 64.5182 27.016 64.8542 27.24C65.1902 27.4267 65.3582 27.8 65.3582 28.36C65.3582 29.2933 64.8915 31.8507 63.9582 36.032C62.9128 40.8107 62.3902 43.76 62.3902 44.88C62.3902 45.5893 62.5395 46.1493 62.8382 46.56C63.1368 46.9333 63.5288 47.12 64.0142 47.12C64.7608 47.12 65.6382 46.672 66.6462 45.776C67.6915 44.8427 69.0728 43.3493 70.7902 41.296C71.2382 40.7733 71.7422 40.512 72.3022 40.512C72.7875 40.512 73.1608 40.736 73.4222 41.184C73.7208 41.632 73.8702 42.248 73.8702 43.032C73.8702 44.5253 73.5155 45.6827 72.8062 46.504C71.2008 48.4827 69.4648 50.1067 67.5982 51.376C65.7688 52.6453 63.6782 53.28 61.3262 53.28C59.5342 53.28 58.2088 52.5893 57.3502 51.208C56.5288 49.8267 56.1182 47.8853 56.1182 45.384C55.4835 47.9227 54.5315 49.8827 53.2622 51.264C51.9928 52.608 50.6302 53.28 49.1742 53.28ZM51.7502 23.208C50.5555 23.208 49.6222 22.8907 48.9502 22.256C48.2782 21.584 47.9422 20.5573 47.9422 19.176C47.9422 17.6827 48.3342 16.5253 49.1182 15.704C49.9395 14.8453 51.0222 14.416 52.3662 14.416C53.5608 14.416 54.4942 14.752 55.1662 15.424C55.8382 16.0587 56.1742 17.0667 56.1742 18.448C56.1742 19.9413 55.7635 21.1173 54.9422 21.976C54.1582 22.7973 53.0942 23.208 51.7502 23.208ZM63.3982 23.208C62.2035 23.208 61.2702 22.8907 60.5982 22.256C59.9262 21.584 59.5902 20.5573 59.5902 19.176C59.5902 17.6827 59.9822 16.5253 60.7662 15.704C61.5875 14.8453 62.6702 14.416 64.0142 14.416C65.2088 14.416 66.1422 14.752 66.8142 15.424C67.4862 16.0587 67.8222 17.0667 67.8222 18.448C67.8222 19.9413 67.4115 21.1173 66.5902 21.976C65.8062 22.7973 64.7422 23.208 63.3982 23.208ZM91.9534 34.576C92.7747 34.576 93.4654 34.8747 94.0254 35.472C94.6227 36.032 94.9214 36.7413 94.9214 37.6C94.9214 38.0853 94.8094 38.608 94.5854 39.168C93.988 40.5493 93.148 41.7067 92.0654 42.64C90.9827 43.5733 89.788 44.04 88.4814 44.04C87.436 44.04 86.54 43.6667 85.7934 42.92C85.084 42.1733 84.7294 41.1653 84.7294 39.896C84.7294 39.1867 84.7667 38.4213 84.8414 37.6C84.916 37.0027 84.9534 36.592 84.9534 36.368C84.9534 36.0693 84.8787 35.8453 84.7294 35.696C84.6174 35.5467 84.468 35.472 84.2814 35.472C83.7587 35.472 83.0494 36.1067 82.1534 37.376C81.2574 38.608 80.3614 40.2507 79.4654 42.304C78.5694 44.3573 77.8414 46.5227 77.2814 48.8C76.8707 50.592 76.404 51.7867 75.8814 52.384C75.3587 52.9813 74.5 53.28 73.3054 53.28C71.8867 53.28 70.8787 52.5333 70.2814 51.04C69.7214 49.5467 69.4414 47.1573 69.4414 43.872C69.4414 39.0187 70.132 34.408 71.5134 30.04C71.8494 28.9573 72.3907 28.1733 73.1374 27.688C73.9214 27.1653 75.004 26.904 76.3854 26.904C77.132 26.904 77.6547 26.9973 77.9534 27.184C78.252 27.3707 78.4014 27.7253 78.4014 28.248C78.4014 28.8453 78.1214 30.1893 77.5614 32.28C77.188 33.7733 76.8894 35.08 76.6654 36.2C76.4414 37.32 76.2547 38.7013 76.1054 40.344C77.3374 37.1333 78.7187 34.52 80.2494 32.504C81.78 30.488 83.2734 29.0507 84.7294 28.192C86.1854 27.3333 87.5107 26.904 88.7054 26.904C89.788 26.904 90.6094 27.2213 91.1694 27.856C91.7667 28.4533 92.0654 29.3493 92.0654 30.544C92.0654 31.2533 91.86 32.5973 91.4494 34.576H91.9534Z" fill="#115E59"/>
<path d="M128.864 40.512C129.349 40.512 129.723 40.736 129.984 41.184C130.283 41.632 130.432 42.248 130.432 43.032C130.432 44.5253 130.077 45.6827 129.368 46.504C127.837 48.3707 126.157 49.976 124.328 51.32C122.499 52.6267 120.688 53.28 118.896 53.28C116.059 53.28 113.893 51.6187 112.4 48.296C110.832 50.2747 109.451 51.6 108.256 52.272C107.099 52.944 105.736 53.28 104.168 53.28C101.891 53.28 100.005 52.44 98.5119 50.76C97.0559 49.0427 96.3279 46.8213 96.3279 44.096C96.3279 41.1093 96.9626 38.3467 98.2319 35.808C99.5013 33.232 101.237 31.1413 103.44 29.536C105.68 27.8933 108.181 26.9227 110.944 26.624C111.653 19.3813 112.997 13.2027 114.976 8.088C116.992 2.936 119.624 0.359997 122.872 0.359997C124.477 0.359997 125.803 1.088 126.848 2.544C127.931 4 128.472 6.20266 128.472 9.152C128.472 13.3333 127.445 18.224 125.392 23.824C123.339 29.424 120.595 35.1733 117.16 41.072C117.309 43.2373 117.627 44.7867 118.112 45.72C118.635 46.6533 119.288 47.12 120.072 47.12C121.08 47.12 122.107 46.672 123.152 45.776C124.197 44.88 125.597 43.3867 127.352 41.296C127.8 40.7733 128.304 40.512 128.864 40.512ZM122.256 5.848C121.547 5.848 120.837 7.11733 120.128 9.656C119.419 12.1573 118.803 15.4427 118.28 19.512C117.795 23.5813 117.44 27.8373 117.216 32.28C121.397 23.1707 123.488 15.8533 123.488 10.328C123.488 8.90933 123.357 7.808 123.096 7.024C122.872 6.24 122.592 5.848 122.256 5.848ZM106.128 47.624C106.837 47.624 107.547 47.344 108.256 46.784C108.965 46.1867 109.861 45.104 110.944 43.536C110.571 41.52 110.384 39.2613 110.384 36.76C110.384 35.864 110.421 34.408 110.496 32.392C108.443 33.0267 106.725 34.408 105.344 36.536C104 38.6267 103.328 40.96 103.328 43.536C103.328 46.2613 104.261 47.624 106.128 47.624ZM131.7 53.28C129.946 53.28 128.527 52.5707 127.444 51.152C126.399 49.696 125.876 47.6987 125.876 45.16C125.876 42.36 126.063 39.8027 126.436 37.488C126.81 35.136 127.426 32.6533 128.284 30.04C128.658 28.92 129.18 28.1173 129.852 27.632C130.524 27.1467 131.588 26.904 133.044 26.904C133.866 26.904 134.426 27.0347 134.724 27.296C135.06 27.5573 135.228 27.9493 135.228 28.472C135.228 28.7707 135.023 29.7787 134.612 31.496C134.239 32.8773 133.94 34.128 133.716 35.248C132.97 39.168 132.596 41.7813 132.596 43.088C132.596 43.872 132.69 44.432 132.876 44.768C133.063 45.0667 133.362 45.216 133.772 45.216C134.332 45.216 135.042 44.656 135.9 43.536C136.759 42.3787 137.655 40.6613 138.588 38.384C139.559 36.0693 140.474 33.288 141.332 30.04C141.631 28.92 142.079 28.1173 142.676 27.632C143.311 27.1467 144.244 26.904 145.476 26.904C146.298 26.904 146.876 27.128 147.212 27.576C147.586 27.9867 147.772 28.6213 147.772 29.48C147.772 30.4133 147.698 31.4587 147.548 32.616C147.399 33.736 147.231 34.8933 147.044 36.088C146.671 38.4773 146.372 40.6613 146.148 42.64C145.924 44.5813 145.812 46.8027 145.812 49.304C145.812 50.7227 145.514 51.7493 144.916 52.384C144.356 52.9813 143.423 53.28 142.116 53.28C140.735 53.28 139.764 52.9253 139.204 52.216C138.682 51.4693 138.42 50.0507 138.42 47.96C138.42 47.5493 138.458 46.6347 138.532 45.216C137.898 47.8293 136.946 49.8267 135.676 51.208C134.444 52.5893 133.119 53.28 131.7 53.28Z" fill="#2DD4BF"/>
</svg>
